<svg width="25" height="24" viewBox="0 0 25 24" fill="none" xmlns="http://www.w3.org/2000/svg">
<path d="M18.6242 17.5414C17.0952 17.54 15.8544 18.7783 15.8529 20.3074C15.8514 21.8365 17.0898 23.0772 18.6189 23.0787C20.1479 23.0802 21.3887 21.8418 21.3902 20.3128V20.3101C21.3887 18.7827 20.1516 17.5444 18.6242 17.5414Z" fill="#B1B1B1"/>
<path d="M23.5348 4.28378C23.4686 4.27095 23.4012 4.26443 23.3338 4.26433H6.4764L6.20941 2.47819C6.04307 1.29198 5.02842 0.409423 3.83059 0.409058H1.65998C1.07016 0.409058 0.592041 0.887179 0.592041 1.477C0.592041 2.06681 1.07016 2.54493 1.65998 2.54493H3.83325C3.96903 2.54394 4.08396 2.64505 4.10023 2.7799L5.74485 14.052C5.97032 15.4843 7.20237 16.541 8.65232 16.5456H19.7615C21.1575 16.5474 22.3618 15.5663 22.6423 14.1988L24.3804 5.53516C24.4924 4.95609 24.1139 4.39584 23.5348 4.28378Z" fill="#B1B1B1"/>
<path d="M11.8418 20.1915C11.7767 18.7073 10.5518 17.5389 9.06617 17.5441C7.53835 17.6058 6.34985 18.8945 6.41159 20.4223C6.47083 21.8882 7.66335 23.0534 9.13025 23.0787H9.197C10.7246 23.0118 11.9087 21.7191 11.8418 20.1915Z" fill="#B1B1B1"/>
</svg>
