<svg width="22" height="19" viewBox="0 0 22 19" fill="none" xmlns="http://www.w3.org/2000/svg">
<path d="M19.6603 2.356C18.6033 1.30287 17.172 0.711548 15.6799 0.711548C14.1878 0.711548 12.7565 1.30287 11.6995 2.356L10.896 3.15952L10.0925 2.356C9.03545 1.30287 7.60416 0.711548 6.11206 0.711548C4.61997 0.711548 3.18868 1.30287 2.13166 2.356C1.07808 3.41428 0.486572 4.8468 0.486572 6.34012C0.486572 7.83343 1.07808 9.26596 2.13166 10.3242L10.3677 18.5603C10.4369 18.6301 10.5192 18.6854 10.6099 18.7232C10.7005 18.7609 10.7978 18.7804 10.896 18.7804C10.9942 18.7804 11.0914 18.7609 11.1821 18.7232C11.2728 18.6854 11.3551 18.6301 11.4242 18.5603L19.6603 10.3242C20.7139 9.26596 21.3054 7.83343 21.3054 6.34012C21.3054 4.8468 20.7139 3.41428 19.6603 2.356Z" fill="#B1B1B1"/>
</svg>
